{
  "asset": {
    "version": "2.0",
    "generator": "THREE.GLTFExporter"
  },
  "scenes": [
    {
      "nodes": [
        0
      ]
    }
  ],
  "scene": 0,
  "nodes": [
    {
      "children": [
        2,
        3,
        4,
        5
      ],
      "matrix": [
        0.01,
        0,
        0,
        0,
        0,
        0.01,
        0,
        0,
        0,
        0,
        0.01,
        0,
        0,
        0,
        0,
        1
      ]
    },
    {
      "name": "mesh_0",
      "mesh": 0
    },
    {
      "matrix": [
        -0.8755738272505136,
        0.15219303634683823,
        -0.458484190263327,
        0,
        0.04880980411692942,
        0.9720908485869018,
        0.22947109865005705,
        0,
        0.48061218883415313,
        0.17854036457094852,
        -0.858565817024483,
        0,
        -15,
        -23,
        -24,
        1
      ],
      "name": "sabrina",
      "children": [
        1
      ]
    },
    {
      "matrix": [
        0.5883484054145521,
        0.39223227027636803,
        -0.7071067811865475,
        0,
        -0.554700196225229,
        0.8320502943378437,
        0,
        0,
        0.588348405414552,
        0.392232270276368,
        0.7071067811865476,
        0,
        0,
        0,
        0,
        1
      ],
      "name": "Directional Light",
      "extensions": {
        "KHR_lights_punctual": {
          "light": 0
        }
      }
    },
    {
      "matrix": [
        0.8065763605544116,
        2.0679330581252486e-8,
        0.5911299134664049,
        0,
        -0.11378635751488772,
        0.9812990199499979,
        0.15525752248656988,
        0,
        -0.5800752015370886,
        -0.19248956710734522,
        0.791492594479906,
        0,
        -643.2025868314739,
        -218.00672538063165,
        807.0085761022696,
        1
      ],
      "camera": 0
    },
    {
      "matrix": [
        1,
        0,
        0,
        0,
        0,
        1,
        0,
        0,
        0,
        0,
        1,
        0,
        0,
        1,
        0,
        1
      ],
      "name": "Default Ambient Light"
    }
  ],
  "bufferViews": [
    {
      "buffer": 0,
      "byteOffset": 0,
      "byteLength": 230796,
      "target": 34962,
      "byteStride": 12
    },
    {
      "buffer": 0,
      "byteOffset": 230796,
      "byteLength": 153864,
      "target": 34962,
      "byteStride": 8
    },
    {
      "buffer": 0,
      "byteOffset": 384660,
      "byteLength": 153864,
      "target": 34962,
      "byteStride": 8
    },
    {
      "buffer": 0,
      "byteOffset": 538524,
      "byteLength": 230796,
      "target": 34962,
      "byteStride": 12
    },
    {
      "buffer": 0,
      "byteOffset": 769320,
      "byteLength": 395508,
      "target": 34963
    }
  ],
  "buffers": [
    {
      "byteLength": 1164828,
      "uri": "data:application/octet-stream;base64,"
    }
  ],
  "accessors": [
    {
      "bufferView": 0,
      "componentType": 5126,
      "count": 19233,
      "max": [
        60.35274124145508,
        70.51106262207031,
        -7.424226760864258
      ],
      "min": [
        -38.318382263183594,
        -29.488937377929688,
        -64.66259002685547
      ],
      "type": "VEC3"
    },
    {
      "bufferView": 1,
      "componentType": 5126,
      "count": 19233,
      "max": [
        0.9997172951698303,
        0.9963573217391968
      ],
      "min": [
        0.00001817424526961986,
        0.00008281147893285379
      ],
      "type": "VEC2"
    },
    {
      "bufferView": 2,
      "componentType": 5126,
      "count": 19233,
      "max": [
        0.9997172951698303,
        0.9963573217391968
      ],
      "min": [
        0.00001817424526961986,
        0.00008281147893285379
      ],
      "type": "VEC2"
    },
    {
      "bufferView": 3,
      "componentType": 5126,
      "count": 19233,
      "max": [
        0.9999571442604065,
        1,
        0.9999401569366455
      ],
      "min": [
        -0.9999725222587585,
        -0.999720573425293,
        -1
      ],
      "type": "VEC3"
    },
    {
      "bufferView": 4,
      "componentType": 5125,
      "count": 98877,
      "max": [
        19232
      ],
      "min": [
        0
      ],
      "type": "SCALAR"
    }
  ],
  "materials": [
    {
      "pbrMetallicRoughness": {
        "baseColorTexture": {
          "index": 0,
          "extensions": {
            "KHR_texture_transform": {
              "offset": [
                0,
                1
              ],
              "scale": [
                1,
                -1
              ]
            }
          }
        },
        "metallicFactor": 0,
        "roughnessFactor": 0.995
      },
      "doubleSided": false
    }
  ],
  "textures": [
    {
      "sampler": 0,
      "source": 0
    }
  ],
  "samplers": [
    {
      "magFilter": 9729,
      "minFilter": 9729,
      "wrapS": 10497,
      "wrapT": 10497
    }
  ],
  "images": [
    {
      "mimeType": "image/jpeg",
      "uri": "data:image/jpeg;base64,"
    }
  ],
  "meshes": [
    {
      "primitives": [
        {
          "mode": 4,
          "attributes": {
            "POSITION": 0,
            "TEXCOORD_0": 1,
            "TEXCOORD_1": 2,
            "NORMAL": 3
          },
          "extras": {
            "parameters": {
              "width": 98.67112602133966,
              "height": 100.00000002309929,
              "depth": 57.23836171693972,
              "subdivisions": 0
            },
            "type": "NonParametricGeometry"
          },
          "indices": 4,
          "material": 0
        }
      ]
    }
  ],
  "extensions": {
    "KHR_lights_punctual": {
      "lights": [
        {
          "name": "Directional Light",
          "color": [
            1,
            1,
            1
          ],
          "intensity": 0.7,
          "type": "directional"
        }
      ]
    }
  },
  "cameras": [
    {
      "type": "orthographic",
      "orthographic": {
        "xmag": 1.0985831444872816,
        "ymag": 0.5752787950393542,
        "zfar": 100000,
        "znear": 0
      }
    }
  ],
  "extensionsUsed": [
    "KHR_texture_transform",
    "KHR_lights_punctual"
  ]
}