{
  "asset": {
    "version": "2.0",
    "generator": "THREE.GLTFExporter"
  },
  "scenes": [
    {
      "nodes": [
        0
      ]
    }
  ],
  "scene": 0,
  "nodes": [
    {
      "children": [
        2,
        3,
        4,
        5
      ],
      "matrix": [
        0.01,
        0,
        0,
        0,
        0,
        0.01,
        0,
        0,
        0,
        0,
        0.01,
        0,
        0,
        0,
        0,
        1
      ]
    },
    {
      "name": "mesh_0",
      "mesh": 0
    },
    {
      "matrix": [
        -0.8046279746475375,
        0.14002789670335908,
        -0.5770320706506995,
        0,
        -0.2962088467102354,
        0.8086789621211468,
        0.6092824930488862,
        0,
        0.5231987360259436,
        0.6267270142648418,
        -0.5774740965718985,
        0,
        14.771487153994917,
        22.893765031289828,
        26.41310068297507,
        1
      ],
      "name": "room",
      "children": [
        1
      ]
    },
    {
      "matrix": [
        0.5883484054145521,
        0.39223227027636803,
        -0.7071067811865475,
        0,
        -0.554700196225229,
        0.8320502943378437,
        0,
        0,
        0.588348405414552,
        0.392232270276368,
        0.7071067811865476,
        0,
        0,
        0,
        0,
        1
      ],
      "name": "Directional Light",
      "extensions": {
        "KHR_lights_punctual": {
          "light": 0
        }
      }
    },
    {
      "matrix": [
        0.6183137946737853,
        2.5663571504019878e-8,
        -0.7859313273537984,
        0,
        0.08347679100878952,
        0.9943433079687108,
        0.06567352024002038,
        0,
        0.7814855575626327,
        -0.10621386866996621,
        0.6148161818163054,
        0,
        781.4855575626316,
        -106.21386866996615,
        614.8161818160901,
        1
      ],
      "camera": 0
    },
    {
      "matrix": [
        1,
        0,
        0,
        0,
        0,
        1,
        0,
        0,
        0,
        0,
        1,
        0,
        0,
        1,
        0,
        1
      ],
      "name": "Default Ambient Light"
    }
  ],
  "bufferViews": [
    {
      "buffer": 0,
      "byteOffset": 0,
      "byteLength": 357876,
      "target": 34962,
      "byteStride": 12
    },
    {
      "buffer": 0,
      "byteOffset": 357876,
      "byteLength": 357876,
      "target": 34962,
      "byteStride": 12
    },
    {
      "buffer": 0,
      "byteOffset": 715752,
      "byteLength": 238584,
      "target": 34962,
      "byteStride": 8
    },
    {
      "buffer": 0,
      "byteOffset": 954336,
      "byteLength": 238584,
      "target": 34962,
      "byteStride": 8
    },
    {
      "buffer": 0,
      "byteOffset": 1192920,
      "byteLength": 599988,
      "target": 34963
    }
  ],
  "buffers": [
    {
      "byteLength": 1792908,
      "uri": "data:application/octet-stream;base64,"
    }
  ],
  "accessors": [
    {
      "bufferView": 0,
      "componentType": 5126,
      "count": 29823,
      "max": [
        0.999998152256012,
        0.9999995827674866,
        1
      ],
      "min": [
        -0.9998652935028076,
        -0.9999994039535522,
        -0.9997788667678833
      ],
      "type": "VEC3"
    },
    {
      "bufferView": 1,
      "componentType": 5126,
      "count": 29823,
      "max": [
        71.48052978515625,
        50,
        100.8893814086914
      ],
      "min": [
        -71.48052978515625,
        -50,
        -100.8893814086914
      ],
      "type": "VEC3"
    },
    {
      "bufferView": 2,
      "componentType": 5126,
      "count": 29823,
      "max": [
        0.9999769330024719,
        0.9875538349151611
      ],
      "min": [
        0.00010353927063988522,
        0.00007571034075226635
      ],
      "type": "VEC2"
    },
    {
      "bufferView": 3,
      "componentType": 5126,
      "count": 29823,
      "max": [
        0.9999769330024719,
        0.9875538349151611
      ],
      "min": [
        0.00010353927063988522,
        0.00007571034075226635
      ],
      "type": "VEC2"
    },
    {
      "bufferView": 4,
      "componentType": 5125,
      "count": 149997,
      "max": [
        29822
      ],
      "min": [
        0
      ],
      "type": "SCALAR"
    }
  ],
  "materials": [
    {
      "pbrMetallicRoughness": {
        "baseColorFactor": [
          1,
          1,
          1,
          1
        ],
        "metallicFactor": 0,
        "roughnessFactor": 0.995
      },
      "doubleSided": false
    }
  ],
  "meshes": [
    {
      "primitives": [
        {
          "mode": 4,
          "attributes": {
            "NORMAL": 0,
            "POSITION": 1,
            "TEXCOORD_0": 2,
            "TEXCOORD_1": 3
          },
          "extras": {
            "parameters": {
              "width": 142.96106222612912,
              "height": 100,
              "depth": 201.77876970939218,
              "subdivisions": 0
            },
            "type": "NonParametricGeometry"
          },
          "indices": 4,
          "material": 0
        }
      ]
    }
  ],
  "extensions": {
    "KHR_lights_punctual": {
      "lights": [
        {
          "name": "Directional Light",
          "color": [
            1,
            1,
            1
          ],
          "intensity": 0.7,
          "type": "directional"
        }
      ]
    }
  },
  "cameras": [
    {
      "type": "orthographic",
      "orthographic": {
        "xmag": 1.6044247604734576,
        "ymag": 0.9025560023800521,
        "zfar": 100000,
        "znear": 0
      }
    }
  ],
  "extensionsUsed": [
    "KHR_lights_punctual"
  ]
}